<svg width="70" height="70" viewBox="0 0 70 70" fill="none" xmlns="http://www.w3.org/2000/svg">
<path d="M69.9987 22.0908V60.8186C69.9987 62.0636 69.507 63.2576 68.6319 64.1379C67.7567 65.0183 66.5697 65.5128 65.332 65.5128H13.9987C12.761 65.5128 11.574 65.0183 10.6989 64.1379C9.8237 63.2576 9.33203 62.0636 9.33203 60.8186V32.559C11.6466 33.6261 14.2066 34.038 16.7365 33.7506C19.2665 33.4631 21.6706 32.4871 23.6902 30.9275C25.7097 29.368 27.2683 27.2839 28.1981 24.8997C29.1279 22.5155 29.3937 19.9214 28.967 17.3965H33.832V39.577C33.832 40.7857 35.197 41.3373 35.897 40.3985L39.6654 33.8265L43.4337 40.3985C44.1337 41.3256 45.4987 40.7857 45.4987 39.577V17.3965H65.332C66.5697 17.3965 67.7567 17.8911 68.6319 18.7714C69.507 19.6518 69.9987 20.8458 69.9987 22.0908Z" fill="#D8D8D8"/>
<path fill-rule="evenodd" clip-rule="evenodd" d="M33.834 16.3965C34.3863 16.3965 34.834 16.8442 34.834 17.3965V39.5799C34.834 39.6865 34.8626 39.7501 34.8869 39.786C34.9135 39.8255 34.9462 39.8483 34.9735 39.8592C35.0004 39.8699 35.0164 39.8674 35.0221 39.8659C35.0253 39.865 35.0319 39.8628 35.0422 39.8557C35.0484 39.8515 35.0579 39.8442 35.0699 39.8319L38.7999 33.3289C38.9781 33.0181 39.309 32.8265 39.6673 32.8265C40.0256 32.8265 40.3565 33.0181 40.5348 33.3289L44.2675 39.8367C44.2809 39.851 44.2914 39.8592 44.2978 39.8637C44.3078 39.8706 44.3135 39.8723 44.3153 39.8728C44.3179 39.8735 44.3315 39.8766 44.3577 39.8661C44.3846 39.8553 44.4184 39.8318 44.4463 39.7902C44.4719 39.7522 44.5006 39.6867 44.5006 39.5799V17.3965C44.5006 16.8442 44.9484 16.3965 45.5006 16.3965C46.0529 16.3965 46.5006 16.8442 46.5006 17.3965V39.5799C46.5006 40.5852 45.9153 41.3952 45.1043 41.7215C44.2718 42.0565 43.2665 41.8472 42.6357 40.9975C42.6122 40.966 42.5907 40.933 42.5711 40.8989L39.6673 35.8363L36.7635 40.8989C36.7427 40.9352 36.7196 40.9702 36.6944 41.0036C36.0624 41.8415 35.0616 42.0469 34.2338 41.7174C33.422 41.3942 32.834 40.5877 32.834 39.5799V17.3965C32.834 16.8442 33.2817 16.3965 33.834 16.3965Z" fill="#222222"/>
<path fill-rule="evenodd" clip-rule="evenodd" d="M44.5 52.6035C44.5 52.0512 44.9477 51.6035 45.5 51.6035H61.8333C62.3856 51.6035 62.8333 52.0512 62.8333 52.6035C62.8333 53.1558 62.3856 53.6035 61.8333 53.6035H45.5C44.9477 53.6035 44.5 53.1558 44.5 52.6035Z" fill="#222222"/>
<path fill-rule="evenodd" clip-rule="evenodd" d="M44.5 57.2979C44.5 56.7456 44.9477 56.2979 45.5 56.2979H59.5C60.0523 56.2979 60.5 56.7456 60.5 57.2979C60.5 57.8501 60.0523 58.2979 59.5 58.2979H45.5C44.9477 58.2979 44.5 57.8501 44.5 57.2979Z" fill="#222222"/>
<path fill-rule="evenodd" clip-rule="evenodd" d="M19.089 7.25603C16.2643 6.35651 13.2188 6.45502 10.4572 7.53535C7.69547 8.61573 5.38239 10.6136 3.90248 13.1991C3.62812 13.6784 3.01714 13.8445 2.53783 13.5702C2.05851 13.2958 1.89235 12.6848 2.16671 12.2055C3.87244 9.22552 6.54011 6.92011 9.72858 5.6728C12.9171 4.42545 16.4341 4.31162 19.6959 5.35032C22.9576 6.38899 25.7673 8.51732 27.66 11.3811C29.5527 14.2448 30.4152 17.6723 30.1055 21.0957C29.7958 24.5191 28.3323 27.7342 25.9564 30.2077C23.5803 32.6814 20.4342 34.2648 17.0393 34.6942C13.6443 35.1236 10.2059 34.373 7.29403 32.5675C4.38232 30.7621 2.17262 28.0108 1.02986 24.7706C0.84617 24.2497 1.11948 23.6786 1.64032 23.4949C2.16116 23.3112 2.7323 23.5845 2.91599 24.1054C3.90786 26.9177 5.8249 29.3033 8.34797 30.8677C10.8709 32.4321 13.8489 33.0818 16.7883 32.71C19.7279 32.3382 22.4538 30.967 24.514 28.8222C26.5742 26.6774 27.8448 23.8878 28.1136 20.9155C28.3825 17.9432 27.6335 14.9682 25.9915 12.4839C24.3496 9.99961 21.9139 8.15558 19.089 7.25603Z" fill="#222222"/>
<path fill-rule="evenodd" clip-rule="evenodd" d="M21.768 14.4614C21.7216 14.4614 21.6754 14.4708 21.632 14.4893C21.5885 14.5079 21.5484 14.5354 21.5143 14.5708L21.5122 14.573L15.1964 21.0961C15.1957 21.0968 15.1951 21.0975 15.1944 21.0982C14.9756 21.326 14.7132 21.5078 14.4225 21.6323C14.1308 21.7572 13.8169 21.8217 13.4995 21.8217C13.182 21.8217 12.8681 21.7572 12.5764 21.6323C12.2858 21.5078 12.0235 21.3261 11.8047 21.0984L9.61684 18.841C9.58274 18.8056 9.54263 18.7781 9.49919 18.7595C9.45577 18.741 9.40956 18.7316 9.36317 18.7316C9.31677 18.7316 9.27056 18.741 9.22714 18.7595C9.1837 18.7781 9.14358 18.8056 9.10949 18.841L9.10777 18.8428L8.30366 19.6741C8.22532 19.7567 8.17969 19.869 8.17969 19.9881C8.17969 20.1071 8.22528 20.2194 8.30354 20.3019L13.2447 25.4051C13.279 25.4407 13.3192 25.4683 13.3629 25.4869C13.4065 25.5055 13.4529 25.5149 13.4995 25.5149C13.546 25.5149 13.5925 25.5055 13.636 25.4869C13.6797 25.4683 13.72 25.4407 13.7542 25.4051L13.7559 25.4033L22.8276 16.0318C22.9059 15.9493 22.9515 15.837 22.9515 15.7179C22.9515 15.5989 22.9058 15.4865 22.8275 15.404C22.8271 15.4035 22.8266 15.4031 22.8262 15.4026L22.0234 14.5726L22.0217 14.5708C21.9876 14.5354 21.9475 14.5079 21.904 14.4893C21.8606 14.4708 21.8144 14.4614 21.768 14.4614ZM7.58252 18.9813L6.86372 18.2861L7.66846 17.4541C7.66878 17.4538 7.66911 17.4534 7.66944 17.4531C7.88853 17.2257 8.15102 17.0443 8.44178 16.9202C8.73301 16.7958 9.04633 16.7316 9.36317 16.7316C9.68 16.7316 9.99333 16.7958 10.2846 16.9202C10.5751 17.0442 10.8375 17.2255 11.0565 17.4527C11.057 17.4532 11.0574 17.4536 11.0579 17.4541L13.2464 19.7122C13.2804 19.7477 13.3204 19.7752 13.3637 19.7938C13.407 19.8123 13.4532 19.8217 13.4995 19.8217C13.5458 19.8217 13.5919 19.8123 13.6352 19.7938C13.6785 19.7752 13.7185 19.7477 13.7525 19.7123L13.756 19.7086L20.0733 13.1839C20.0737 13.1835 20.0741 13.1831 20.0746 13.1826C20.2936 12.9554 20.556 12.7741 20.8466 12.65C21.1378 12.5257 21.4512 12.4614 21.768 12.4614C22.0848 12.4614 22.3982 12.5257 22.6894 12.65C22.9802 12.7742 23.2428 12.9556 23.4619 13.1831C23.4622 13.1834 23.4624 13.1837 23.4627 13.1839L24.2711 14.0197C24.7087 14.477 24.9515 15.0862 24.9515 15.7179C24.9515 16.3497 24.7087 16.9589 24.2711 17.4161L24.2672 17.4202L15.1947 26.7925C15.1944 26.7928 15.1941 26.7931 15.1939 26.7934C14.9746 27.0208 14.712 27.2022 14.4211 27.3264C14.1298 27.4507 13.8164 27.5149 13.4995 27.5149C13.1826 27.5149 12.8692 27.4507 12.5778 27.3264C12.2871 27.2023 12.0245 27.021 11.8053 26.7937C11.8049 26.7933 11.8046 26.7929 11.8042 26.7925L6.86007 21.6863C6.42245 21.2291 6.17969 20.6199 6.17969 19.9881C6.17969 19.3563 6.42247 18.7472 6.86008 18.2899L7.58252 18.9813Z" fill="#222222"/>
<path fill-rule="evenodd" clip-rule="evenodd" d="M1.53112 16.4106C2.07567 16.5028 2.44245 17.0189 2.35034 17.5634C2.22845 18.2841 2.16679 19.0138 2.16602 19.7448C2.16543 20.2971 1.71724 20.7444 1.16496 20.7438C0.612673 20.7432 0.165432 20.295 0.166016 19.7427C0.166907 18.9006 0.237933 18.0601 0.378353 17.2299C0.470459 16.6853 0.986571 16.3185 1.53112 16.4106Z" fill="#222222"/>
</svg>
