<svg width="73" height="71" viewBox="0 0 73 71" fill="none" xmlns="http://www.w3.org/2000/svg">
<g clip-path="url(#clip0_4269_18360)">
<path d="M50.6211 42C61.9429 42 71.1211 32.8218 71.1211 21.5C71.1211 10.1782 61.9429 1 50.6211 1C39.2993 1 30.1211 10.1782 30.1211 21.5C30.1211 32.8218 39.2993 42 50.6211 42Z" fill="#D8D8D8"/>
<path d="M47.8103 29.2798H42.0003C41.7592 29.2826 41.5251 29.198 41.3414 29.0418C41.1576 28.8856 41.0365 28.6683 41.0003 28.4298C40.5903 25.5898 42.5503 24.0898 44.2703 22.7698C45.6703 21.6898 46.8803 20.7698 46.9803 19.2698C46.9772 19.0085 46.9228 18.7503 46.8203 18.5098C46.7161 18.2477 46.5595 18.0096 46.3603 17.8098C46.1644 17.6154 45.9337 17.4593 45.6803 17.3498C45.424 17.2421 45.1484 17.1877 44.8703 17.1898C44.631 17.2335 44.401 17.3181 44.1903 17.4398C43.9495 17.572 43.7384 17.7524 43.5703 17.9698C43.3982 18.1889 43.2724 18.4407 43.2003 18.7098C43.1305 18.9806 43.1101 19.2618 43.1403 19.5398C43.1574 19.6712 43.1484 19.8046 43.114 19.9324C43.0795 20.0603 43.0201 20.1801 42.9394 20.285C42.8586 20.3899 42.7579 20.4779 42.6431 20.544C42.5283 20.61 42.4017 20.6528 42.2703 20.6698C42.139 20.6869 42.0056 20.6779 41.8778 20.6435C41.7499 20.609 41.6301 20.5496 41.5251 20.4689C41.4202 20.3881 41.3322 20.2874 41.2662 20.1726C41.2002 20.0578 41.1574 19.9312 41.1403 19.7998C41.0718 19.2578 41.1091 18.7076 41.2503 18.1798C41.4031 17.6551 41.658 17.1658 42.0003 16.7398C42.3395 16.3278 42.7577 15.9878 43.2303 15.7398C43.7011 15.4729 44.222 15.3061 44.7603 15.2498C45.3384 15.2307 45.9141 15.3329 46.4503 15.5498C46.9527 15.7571 47.4084 16.0632 47.7903 16.4498C48.1776 16.8331 48.4807 17.2929 48.6803 17.7998C48.8876 18.3077 48.993 18.8513 48.9903 19.3998C48.8303 21.8598 47.0603 23.2098 45.5003 24.3998C44.1203 25.4598 43.1803 26.2398 42.9903 27.3298H47.8203C48.0855 27.3298 48.3399 27.4352 48.5274 27.6227C48.715 27.8103 48.8203 28.0646 48.8203 28.3298C48.8203 28.595 48.715 28.8494 48.5274 29.0369C48.3399 29.2245 48.0855 29.3298 47.8203 29.3298L47.8103 29.2798Z" fill="#222222"/>
<path d="M57.2702 29.2801C57.0049 29.2801 56.7506 29.1748 56.563 28.9872C56.3755 28.7997 56.2702 28.5454 56.2702 28.2801V16.6201H55.7102L52.6602 23.0001V23.6301H54.1602C54.4254 23.6301 54.6797 23.7355 54.8673 23.923C55.0548 24.1106 55.1602 24.3649 55.1602 24.6301C55.1602 24.8954 55.0548 25.1497 54.8673 25.3372C54.6797 25.5248 54.4254 25.6301 54.1602 25.6301H51.6602C51.3949 25.6301 51.1406 25.5248 50.953 25.3372C50.7655 25.1497 50.6602 24.8954 50.6602 24.6301V22.7601C50.661 22.6111 50.6952 22.4642 50.7602 22.3301L54.1702 15.1901C54.2519 15.0184 54.381 14.8736 54.5422 14.7726C54.7033 14.6717 54.89 14.6188 55.0802 14.6201H57.2702C57.5354 14.6201 57.7897 14.7255 57.9773 14.913C58.1648 15.1006 58.2702 15.3549 58.2702 15.6201V28.2801C58.2702 28.5454 58.1648 28.7997 57.9773 28.9872C57.7897 29.1748 57.5354 29.2801 57.2702 29.2801Z" fill="#222222"/>
<path d="M42.2403 70.1199C41.6674 70.1154 41.0994 70.014 40.5603 69.8199C31.3207 66.362 22.9413 60.9406 16.0003 53.9299C9.03753 46.8766 3.67889 38.4038 0.290315 29.0899C-0.0183899 28.2066 -0.0806181 27.2559 0.110315 26.3399C0.309206 25.4277 0.759537 24.5894 1.41031 23.9199L6.13031 19.0999C6.49097 18.7301 6.92306 18.4376 7.40031 18.2399C7.87561 18.0419 8.38541 17.9399 8.90031 17.9399C9.41522 17.9399 9.92502 18.0419 10.4003 18.2399C10.8776 18.4376 11.3097 18.7301 11.6703 19.0999L19.8003 27.3099C20.1637 27.67 20.4526 28.0981 20.6503 28.5699C21.047 29.5306 21.047 30.6093 20.6503 31.5699C20.4527 32.0472 20.1601 32.4793 19.7903 32.8399L15.7903 36.9799C15.4401 37.322 15.2177 37.7738 15.1603 38.2599C15.1019 38.7342 15.2078 39.2142 15.4603 39.6199C19.2201 45.6018 24.2615 50.6739 30.2203 54.4699C30.6232 54.7208 31.0983 54.8299 31.5703 54.7799C32.0451 54.7277 32.487 54.512 32.8203 54.1699L36.8803 49.9999C37.2442 49.634 37.6755 49.342 38.1503 49.1399C39.111 48.7432 40.1897 48.7432 41.1503 49.1399C41.6276 49.3376 42.0597 49.6301 42.4203 49.9999L50.5503 58.1999C50.912 58.5691 51.2004 59.0034 51.4003 59.4799C51.7895 60.4421 51.7895 61.5178 51.4003 62.4799C51.1978 62.9521 50.9096 63.3827 50.5503 63.7499L45.7203 68.5899C45.0749 69.2839 44.2407 69.774 43.3203 69.9999C42.9666 70.0841 42.6039 70.1244 42.2403 70.1199ZM8.90031 19.9399C8.64927 19.9393 8.40078 19.9904 8.17031 20.0899C7.93515 20.1824 7.72341 20.3259 7.55031 20.5099L2.84031 25.3199C2.45594 25.7238 2.18963 26.2253 2.07031 26.7699C1.95319 27.3188 1.98776 27.8892 2.17032 28.4199C5.45506 37.4555 10.6459 45.6783 17.3903 52.5299C24.1346 59.3329 32.2754 64.5907 41.2503 67.9399C41.772 68.1327 42.339 68.1675 42.8803 68.0399C43.4237 67.9212 43.9206 67.6467 44.3103 67.2499L49.1403 62.3999C49.4127 62.1281 49.5981 61.7813 49.6729 61.4038C49.7477 61.0263 49.7085 60.6351 49.5603 60.2799C49.4583 60.0469 49.3162 59.8337 49.1403 59.6499L41.0003 51.4499C40.8232 51.2635 40.6085 51.1169 40.3703 51.0199C39.9056 50.8304 39.3851 50.8304 38.9203 51.0199C38.689 51.1197 38.4787 51.2622 38.3003 51.4399L34.2403 55.5699C33.5871 56.2392 32.7228 56.6625 31.7936 56.7681C30.8644 56.8738 29.9271 56.6554 29.1403 56.1499C22.9485 52.192 17.7098 46.9124 13.8003 40.6899C13.3082 39.8975 13.0996 38.9615 13.2086 38.035C13.3176 37.1086 13.7377 36.2466 14.4003 35.5899L18.4003 31.4499C18.5838 31.2665 18.7298 31.0491 18.8303 30.8099C18.9291 30.5775 18.9799 30.3275 18.9799 30.0749C18.9799 29.8224 18.9291 29.5724 18.8303 29.3399C18.7306 29.1087 18.5881 28.8983 18.4103 28.7199L10.2803 20.5099C10.105 20.326 9.89405 20.1797 9.66031 20.0799C9.41849 19.9843 9.16034 19.9368 8.90031 19.9399Z" fill="#222222"/>
<path d="M41.9103 55.7998C40.97 58.7116 39.4985 61.424 37.5703 63.7998C39.037 64.4665 40.547 65.0965 42.1003 65.6898H42.2603C42.3262 65.7039 42.3944 65.7039 42.4603 65.6898C42.5185 65.6613 42.5698 65.6204 42.6103 65.5698L47.0803 60.9998L41.9103 55.7998Z" fill="#D8D8D8"/>
</g>
<defs>
<clipPath id="clip0_4269_18360">
<rect width="72.18" height="70.12" fill="white"/>
</clipPath>
</defs>
</svg>
