<svg width="70" height="70" viewBox="0 0 70 70" fill="none" xmlns="http://www.w3.org/2000/svg">
<path d="M40.5426 15.7583L37.1109 15.2812C36.8754 15.2497 36.6522 15.1568 36.4638 15.0119C36.2754 14.867 36.1285 14.675 36.0377 14.4554C35.7621 13.779 35.4401 13.1226 35.0738 12.4907C34.7072 11.8602 34.2979 11.2554 33.8488 10.6806C33.7024 10.4919 33.6083 10.2678 33.5762 10.0312C33.544 9.79447 33.5749 9.55348 33.6656 9.33253L34.959 6.15382C35.084 5.84754 35.0935 5.5063 34.9859 5.1935C34.8783 4.88069 34.6608 4.61758 34.3738 4.45304L28.7191 1.20733C28.4343 1.04377 28.1001 0.988292 27.7777 1.05106C27.4553 1.11383 27.1663 1.29065 26.9637 1.54913L24.8268 4.26983C24.6811 4.45689 24.4889 4.60252 24.2694 4.69223C24.0499 4.78194 23.8108 4.8126 23.5758 4.78116C22.1164 4.57699 20.6357 4.57653 19.1762 4.7798C18.9414 4.81136 18.7024 4.78075 18.4831 4.69102C18.2638 4.60129 18.0719 4.45559 17.9266 4.26847L15.7951 1.55323C15.5923 1.29451 15.3031 1.11753 14.9804 1.05476C14.6578 0.991981 14.3233 1.04761 14.0383 1.21144L8.38086 4.46124C8.09402 4.62556 7.87658 4.88843 7.76895 5.20099C7.66133 5.51356 7.67083 5.85457 7.7957 6.16066L9.08633 9.338C9.17698 9.55866 9.2079 9.79931 9.17598 10.0357C9.14406 10.2721 9.05042 10.496 8.90449 10.6847C8.00141 11.836 7.26373 13.108 6.71289 14.4636C6.62222 14.6832 6.47551 14.8752 6.28742 15.0203C6.09932 15.1655 5.87643 15.2587 5.64102 15.2907L2.20527 15.7706C1.87874 15.8161 1.57969 15.9783 1.36333 16.227C1.14698 16.4758 1.02792 16.7944 1.02813 17.1241L1.02539 23.606C1.02522 23.936 1.14444 24.255 1.36105 24.504C1.57765 24.753 1.87702 24.9153 2.20391 24.9609L5.63555 25.438C5.87114 25.47 6.09422 25.5632 6.28254 25.7084C6.47086 25.8535 6.61783 26.0455 6.70879 26.2651C6.98433 26.9415 7.30639 27.598 7.67266 28.2298C8.03932 28.8599 8.44861 29.4643 8.89766 30.0386C9.04409 30.2273 9.13814 30.4513 9.17031 30.688C9.20248 30.9247 9.17162 31.1657 9.08086 31.3866L7.7875 34.5667C7.66263 34.873 7.65311 35.2142 7.76072 35.527C7.86834 35.8397 8.08576 36.1029 8.37266 36.2675L14.0273 39.5132C14.3122 39.6768 14.6464 39.7322 14.9688 39.6695C15.2912 39.6067 15.5802 39.4299 15.7828 39.1714L17.9197 36.4507C18.0652 36.2634 18.2573 36.1176 18.4769 36.0279C18.6964 35.9381 18.9357 35.9076 19.1707 35.9394C20.6301 36.1438 22.1109 36.1438 23.5703 35.9394C23.8052 35.9084 24.0442 35.9394 24.2634 36.0293C24.4826 36.1193 24.6745 36.265 24.8199 36.4521L26.9514 39.1673C27.1544 39.4258 27.4436 39.6025 27.7662 39.6653C28.0887 39.728 28.4231 39.6726 28.7082 39.5091L34.3656 36.2593C34.6526 36.0947 34.8701 35.8316 34.9777 35.5188C35.0853 35.206 35.0758 34.8648 34.9508 34.5585L33.6602 31.3825C33.5695 31.1619 33.5385 30.9212 33.5704 30.6848C33.6024 30.4484 33.696 30.2245 33.842 30.0359C34.7448 28.8843 35.4825 27.6124 36.0336 26.2569C36.1243 26.0373 36.271 25.8454 36.4591 25.7002C36.6472 25.5551 36.8701 25.4618 37.1055 25.4298L40.5412 24.9499C40.8677 24.9044 41.1668 24.7423 41.3831 24.4935C41.5995 24.2447 41.7186 23.9261 41.7184 23.5964L41.7211 17.1132C41.721 16.7832 41.6017 16.4644 41.3852 16.2154C41.1686 15.9664 40.8694 15.8041 40.5426 15.7583ZM25.159 26.8845C23.4198 27.8846 21.3557 28.1563 19.417 27.6401C17.4783 27.124 15.8224 25.8621 14.8107 24.1296C14.3141 23.2722 13.9918 22.325 13.8626 21.3426C13.7334 20.3602 13.7997 19.3619 14.0578 18.4052C14.3159 17.4485 14.7606 16.5523 15.3664 15.7681C15.9721 14.984 16.727 14.3273 17.5875 13.836C19.3265 12.8353 21.3909 12.5633 23.3297 13.0794C25.2686 13.5956 26.9245 14.858 27.9357 16.5909C28.4323 17.4484 28.7545 18.3955 28.8837 19.3779C29.0128 20.3603 28.9465 21.3586 28.6884 22.3153C28.4304 23.2719 27.9857 24.1681 27.3799 24.9523C26.7742 25.7365 26.0194 26.3931 25.159 26.8845Z" fill="#D8D8D8"/>
<path d="M20.2103 4.6709C19.9135 4.69265 19.6168 4.72312 19.3203 4.76229C19.3711 4.7689 19.4222 4.77386 19.4729 4.78096C19.7242 4.8151 19.98 4.77693 20.2103 4.6709ZM19.4679 35.9394C19.4196 35.9462 19.3711 35.9508 19.3228 35.9571C19.6139 35.995 19.9061 36.0258 20.1995 36.0475C19.9707 35.9431 19.7171 35.9056 19.4679 35.9394Z" fill="#595F74"/>
<path d="M33.686 53.6822C33.1514 53.2176 32.5122 52.8892 31.8232 52.7253C31.1341 52.5613 30.4155 52.5667 29.7289 52.7408C29.0424 52.9149 28.4081 53.2527 27.8805 53.7252C27.3528 54.1978 26.9474 54.791 26.6989 55.4543C26.4503 56.1176 26.3661 56.8312 26.4533 57.5341C26.5405 58.2371 26.7965 58.9084 27.1996 59.4909C27.6027 60.0733 28.1408 60.5495 28.7679 60.8788C29.3951 61.2081 30.0926 61.3806 30.8009 61.3817C30.9047 61.3817 31.0089 61.3781 31.1135 61.3708C31.9792 61.3102 32.8075 60.9943 33.4937 60.463C34.1799 59.9317 34.6931 59.2089 34.9684 58.3859C35.2438 57.563 35.2689 56.6768 35.0406 55.8396C34.8124 55.0023 34.341 54.2515 33.686 53.6822ZM32.5711 58.5269C32.319 58.8169 31.9992 59.0403 31.6401 59.1772C31.281 59.3142 30.8937 59.3604 30.5125 59.3119C30.1312 59.2634 29.7679 59.1216 29.4545 58.8991C29.1411 58.6767 28.8875 58.3803 28.716 58.0364C28.5446 57.6925 28.4605 57.3116 28.4714 56.9274C28.4823 56.5432 28.5878 56.1677 28.7785 55.8341C28.9692 55.5004 29.2392 55.2189 29.5647 55.0145C29.8902 54.8102 30.261 54.6892 30.6444 54.6624C30.7001 54.6585 30.7556 54.6566 30.8109 54.6566C31.3734 54.6559 31.9171 54.8597 32.3406 55.23C32.8078 55.637 33.0944 56.2127 33.1376 56.8307C33.1808 57.4488 32.9771 58.0588 32.5711 58.5269ZM52.1071 31.039C51.4405 31.4199 50.8559 31.929 50.3868 32.5367C49.9177 33.1445 49.5734 33.839 49.3737 34.5803C49.174 35.3216 49.1228 36.0951 49.2232 36.8563C49.3235 37.6174 49.5734 38.3512 49.9584 39.0155C50.7414 40.3551 52.0222 41.3311 53.5216 41.7307C55.0211 42.1303 56.6177 41.9212 57.9636 41.149C58.6302 40.768 59.2148 40.259 59.6839 39.6512C60.153 39.0435 60.4973 38.349 60.697 37.6076C60.8967 36.8663 60.9479 36.0928 60.8476 35.3317C60.7472 34.5705 60.4974 33.8367 60.1124 33.1725C59.329 31.8331 58.0482 30.8574 56.5489 30.4578C55.0496 30.0582 53.4531 30.2671 52.1071 31.039ZM58.7193 37.0649C58.5908 37.5479 58.3675 38.0005 58.0624 38.3964C57.7573 38.7922 57.3765 39.1234 56.9422 39.3707C56.0666 39.8736 55.0279 40.0102 54.0521 39.7509C53.0763 39.4916 52.2424 38.8573 51.7321 37.9861C51.4827 37.5554 51.3209 37.0797 51.2561 36.5863C51.1913 36.0928 51.2248 35.5915 51.3546 35.111C51.4844 34.6306 51.7079 34.1806 52.0124 33.7869C52.3168 33.3932 52.6962 33.0637 53.1285 32.8172C54.0041 32.3144 55.0428 32.1777 56.0186 32.437C56.9944 32.6964 57.8283 33.3307 58.3386 34.2018C58.5888 34.63 58.7513 35.1036 58.8167 35.5951C58.882 36.0866 58.8489 36.5863 58.7193 37.0649ZM67.9363 31.8749L66.1989 31.6332C66.1401 31.6246 66.0845 31.6009 66.0375 31.5644C65.9906 31.528 65.9539 31.4799 65.931 31.425C65.7473 31.0012 65.5389 30.5884 65.3071 30.1887C65.0758 29.7903 64.8215 29.4056 64.5455 29.0367C64.509 28.9893 64.4854 28.9333 64.4771 28.874C64.4688 28.8148 64.4762 28.7544 64.4983 28.6989L65.1501 27.0972C65.3665 26.5607 65.3819 25.9642 65.1936 25.4173C65.0053 24.8704 64.6258 24.4099 64.125 24.1204L60.9011 22.2699C60.4019 21.9863 59.8177 21.8907 59.2542 22.0003C58.6906 22.1098 58.1848 22.4174 57.8282 22.8673L56.7451 24.2469C56.7106 24.2918 56.6653 24.3272 56.6133 24.3497C56.5614 24.3723 56.5046 24.3813 56.4483 24.3759C55.5162 24.2645 54.5741 24.2636 53.6418 24.3733C53.5834 24.3807 53.524 24.3729 53.4694 24.3506C53.4148 24.3284 53.367 24.2924 53.3304 24.2462L52.2505 22.8704C51.8939 22.4203 51.388 22.1126 50.8242 22.0031C50.2605 21.8935 49.6762 21.9892 49.1769 22.273L45.9505 24.1262C45.4502 24.4158 45.071 24.8761 44.8828 25.4227C44.6945 25.9693 44.7097 26.5654 44.9257 27.1017L45.5759 28.7017C45.5982 28.757 45.6056 28.8171 45.5975 28.876C45.5894 28.935 45.566 28.9909 45.5297 29.0381C44.9749 29.7787 44.5091 30.582 44.1421 31.4314C44.1192 31.4863 44.0826 31.5343 44.0357 31.5708C43.9887 31.6072 43.9332 31.6309 43.8744 31.6394L42.134 31.8825C41.5634 31.9645 41.0413 32.2488 40.6629 32.6837C40.2845 33.1186 40.075 33.675 40.0726 34.2514L40.0715 37.9426C40.0735 38.5196 40.2829 39.0766 40.6617 39.5118C41.0404 39.947 41.5632 40.2314 42.1343 40.313L43.8718 40.5548C43.9306 40.5633 43.9862 40.587 44.0331 40.6234C44.0801 40.6599 44.1168 40.7079 44.1397 40.7628C44.5069 41.6102 44.9719 42.4118 45.5251 43.1513C45.5617 43.1986 45.5853 43.2547 45.5935 43.3139C45.6018 43.3732 45.5945 43.4336 45.5723 43.4891L44.9207 45.0908C44.7043 45.6272 44.6888 46.2237 44.8771 46.7706C45.0655 47.3175 45.4449 47.7781 45.9457 48.0675L49.1695 49.918C49.5298 50.1245 49.9379 50.2329 50.3532 50.2323C50.7165 50.2332 51.0754 50.1516 51.4027 49.9936C51.7299 49.8357 52.0171 49.6056 52.2425 49.3206L53.3256 47.941C53.36 47.896 53.4053 47.8605 53.4572 47.8379C53.5092 47.8153 53.566 47.8064 53.6224 47.812C54.5545 47.9235 55.4966 47.9244 56.4289 47.8146C56.4874 47.8073 56.5467 47.8151 56.6013 47.8374C56.6558 47.8596 56.7037 47.8955 56.7403 47.9417L57.8201 49.3176C58.1768 49.7676 58.6828 50.0752 59.2465 50.1848C59.8102 50.2943 60.3945 50.1986 60.8938 49.9149L64.1202 48.0617C64.6206 47.7722 64.9997 47.3118 65.188 46.7652C65.3762 46.2186 65.361 45.6225 65.145 45.0862L64.4947 43.4862C64.4725 43.4309 64.4651 43.3709 64.4732 43.3119C64.4813 43.2529 64.5047 43.197 64.541 43.1498C65.0958 42.4093 65.5616 41.6059 65.9286 40.7565C65.9514 40.7016 65.9881 40.6536 66.035 40.6172C66.0819 40.5807 66.1375 40.5571 66.1963 40.5485L67.9367 40.3054C68.5073 40.2234 69.0294 39.9391 69.4079 39.5042C69.7863 39.0694 69.9958 38.513 69.9981 37.9365L69.9992 34.2453C69.9973 33.6683 69.7878 33.1113 69.409 32.6761C69.0303 32.2409 68.5075 31.9565 67.9363 31.8749ZM67.9473 37.936C67.947 38.0183 67.917 38.0978 67.863 38.1599C67.8089 38.222 67.7344 38.2626 67.6529 38.2744L65.9127 38.5174C65.5058 38.5762 65.1207 38.738 64.794 38.9876C64.4672 39.2371 64.2098 39.5661 64.046 39.9432C63.7428 40.6448 63.3582 41.3083 62.8999 41.9201C62.6529 42.251 62.495 42.6398 62.4416 43.0493C62.3882 43.4588 62.4409 43.8751 62.5948 44.2583L63.2452 45.8584C63.276 45.935 63.2782 46.0202 63.2513 46.0982C63.2244 46.1763 63.1702 46.2421 63.0988 46.2834L59.8725 48.1366C59.8012 48.1771 59.7177 48.1908 59.6372 48.1752C59.5566 48.1595 59.4843 48.1156 59.4333 48.0513L58.3535 46.6755C58.099 46.354 57.7665 46.1028 57.3877 45.9457C57.0088 45.7886 56.5961 45.7309 56.1887 45.778C55.417 45.8688 54.6373 45.868 53.8657 45.7758C53.46 45.7295 53.0491 45.7878 52.6723 45.9451C52.2954 46.1024 51.9651 46.3535 51.7127 46.6746L50.6295 48.0542C50.5786 48.1185 50.5063 48.1624 50.4258 48.178C50.3453 48.1937 50.2618 48.18 50.1905 48.1395L46.9666 46.289C46.8951 46.2476 46.8409 46.1818 46.814 46.1037C46.787 46.0255 46.7893 45.9403 46.8202 45.8637L47.4718 44.262C47.6258 43.8787 47.6787 43.4621 47.6253 43.0524C47.572 42.6427 47.4142 42.2537 47.1671 41.9225C46.7096 41.3111 46.3252 40.6484 46.0215 39.9477C45.8575 39.5709 45.5998 39.2422 45.2731 38.993C44.9463 38.7437 44.5612 38.5822 44.1544 38.5236L42.417 38.2819C42.3354 38.2702 42.2607 38.2296 42.2066 38.1674C42.1525 38.1052 42.1226 38.0256 42.1223 37.9432L42.1234 34.2519C42.1238 34.1696 42.1537 34.0901 42.2077 34.028C42.2618 33.9659 42.3364 33.9253 42.4179 33.9135L44.158 33.6705C44.5648 33.6117 44.95 33.4499 45.2767 33.2004C45.6034 32.9508 45.8609 32.6219 46.0246 32.2448C46.3278 31.5432 46.7125 30.8797 47.1707 30.268C47.4178 29.9371 47.5756 29.5482 47.6291 29.1387C47.6825 28.7292 47.6297 28.3128 47.4759 27.9296L46.8256 26.3296C46.7947 26.253 46.7926 26.1678 46.8195 26.0897C46.8464 26.0116 46.9005 25.9459 46.972 25.9045L50.1983 24.0513C50.2498 24.0218 50.3081 24.0063 50.3674 24.0064C50.4194 24.0062 50.4706 24.0179 50.5174 24.0405C50.5641 24.063 50.6051 24.0959 50.6373 24.1367L51.7172 25.5124C51.9718 25.8339 52.3043 26.0851 52.6831 26.2422C53.0619 26.3992 53.4746 26.457 53.882 26.4099C54.6537 26.3191 55.4334 26.3199 56.205 26.4122C56.6107 26.4583 57.0215 26.4 57.3984 26.2427C57.7752 26.0853 58.1056 25.8343 58.3581 25.5133L59.4412 24.1337C59.4922 24.0695 59.5644 24.0256 59.6449 24.0099C59.7255 23.9943 59.8089 24.008 59.8802 24.0485L63.1041 25.8989C63.1757 25.9403 63.2299 26.0061 63.2568 26.0842C63.2837 26.1623 63.2815 26.2475 63.2506 26.3242L62.5988 27.926C62.4448 28.3094 62.392 28.7259 62.4454 29.1355C62.4987 29.5452 62.6565 29.9343 62.9036 30.2654C63.3611 30.8768 63.7456 31.5395 64.0492 32.2402C64.2132 32.617 64.4709 32.9457 64.7976 33.1949C65.1244 33.4442 65.5095 33.6057 65.9163 33.6643L67.6537 33.9061C67.7353 33.9177 67.81 33.9583 67.8641 34.0205C67.9182 34.0827 67.9481 34.1623 67.9484 34.2447L67.9473 37.936ZM42.3079 50.9647C42.1691 50.5666 41.8919 50.2317 41.5268 50.0209C41.1617 49.8102 40.733 49.7377 40.3189 49.8166L38.4148 50.1875C37.8449 49.5514 37.1979 48.9889 36.4886 48.5131L36.5908 46.5759C36.6114 46.1548 36.48 45.7404 36.2205 45.4082C35.961 45.0759 35.5907 44.848 35.1772 44.766L31.3363 44.0194C30.9222 43.9407 30.4936 44.0134 30.1286 44.2242C29.7636 44.435 29.4864 44.77 29.3477 45.168L28.7167 47.0026C27.8803 47.1769 27.0691 47.4557 26.3023 47.8325L24.6771 46.7762C24.3227 46.5479 23.8981 46.4545 23.4807 46.5131C23.0632 46.5717 22.6807 46.7784 22.4029 47.0955L19.8359 50.0485C19.5605 50.3677 19.409 50.7753 19.4091 51.1969C19.4091 51.6184 19.5607 52.0259 19.8362 52.3451L21.1084 53.8075C20.842 54.6193 20.6788 55.4614 20.6226 56.3139L18.8936 57.194C18.5187 57.3867 18.2255 57.7078 18.0675 58.0986C17.9095 58.4894 17.8973 58.924 18.0331 59.3231L19.3069 63.0227C19.4457 63.4208 19.723 63.7557 20.0881 63.9664C20.4532 64.1772 20.8819 64.2497 21.296 64.1708L23.2 63.7999C23.7699 64.436 24.417 64.9985 25.1262 65.4743L25.024 67.4115C25.0034 67.8326 25.1349 68.247 25.3944 68.5792C25.6538 68.9115 26.0241 69.1394 26.4376 69.2214L30.2785 69.968C30.3874 69.9891 30.4981 69.9998 30.609 69.9998C30.9737 69.9991 31.3291 69.8851 31.6261 69.6737C31.9231 69.4622 32.1471 69.1637 32.2672 68.8194L32.8982 66.9848C33.7346 66.8105 34.5457 66.5316 35.3126 66.1549L36.9378 67.2112C37.2921 67.4396 37.7167 67.533 38.1342 67.4744C38.5517 67.4158 38.9342 67.2091 39.2119 66.8919L41.7789 63.9389C42.0543 63.6197 42.2058 63.2121 42.2057 62.7905C42.2057 62.369 42.0541 61.9615 41.7787 61.6423L40.5065 60.18C40.7728 59.3681 40.936 58.526 40.9923 57.6735L42.7212 56.7934C43.0961 56.6007 43.3893 56.2796 43.5473 55.8888C43.7053 55.498 43.7175 55.0634 43.5818 54.6643L42.3079 50.9647ZM39.9065 55.925C39.6324 56.0652 39.4 56.2751 39.2328 56.5336C39.0656 56.7922 38.9694 57.0902 38.954 57.3977C38.9163 58.1736 38.7677 58.9401 38.5128 59.6739C38.4123 59.9646 38.39 60.2767 38.4483 60.5788C38.5067 60.8808 38.6435 61.1622 38.845 61.3947L40.0596 62.7908L37.8359 65.349L36.2842 64.3406C36.026 64.1733 35.7283 64.077 35.421 64.0613C35.1137 64.0456 34.8078 64.1111 34.5338 64.2512C33.8428 64.6057 33.1045 64.8594 32.3415 65.0048C32.0391 65.0628 31.7572 65.1994 31.5244 65.4011C31.2916 65.6027 31.1161 65.8621 31.0155 66.1532L30.413 67.9049L27.0857 67.2582L27.1833 65.4087C27.199 65.1016 27.1336 64.7957 26.9936 64.5219C26.8537 64.248 26.6441 64.0158 26.3861 63.8486C25.7332 63.4265 25.1435 62.9139 24.6347 62.3261C24.4331 62.0938 24.174 61.9186 23.8833 61.8181C23.5926 61.7177 23.2806 61.6955 22.9786 61.7538L21.1608 62.1078L20.0573 58.9029L21.7081 58.0625C21.9823 57.9223 22.2148 57.7124 22.382 57.4538C22.5493 57.1952 22.6454 56.8971 22.6608 56.5895C22.6985 55.8137 22.8471 55.0473 23.102 54.3135C23.2026 54.0228 23.2248 53.7107 23.1665 53.4086C23.1082 53.1065 22.9713 52.8251 22.7697 52.5927L21.5552 51.1966L23.779 48.6384L25.3306 49.6468C25.5888 49.8141 25.8865 49.9105 26.1938 49.9262C26.5011 49.9419 26.8071 49.8763 27.081 49.7362C27.7722 49.3817 28.5105 49.1279 29.2736 48.9826C29.576 48.9245 29.8577 48.7878 30.0905 48.5862C30.3232 48.3846 30.4987 48.1252 30.5994 47.8342L31.2018 46.0825L34.5291 46.7292L34.4315 48.5787C34.4158 48.8858 34.4813 49.1917 34.6212 49.4655C34.7611 49.7394 34.9707 49.9716 35.2288 50.1388C35.5548 50.3496 35.8654 50.5833 36.1585 50.8379C36.4514 51.0926 36.7261 51.3678 36.9801 51.6613C37.1817 51.8936 37.4409 52.0687 37.7316 52.1692C38.0223 52.2697 38.3343 52.2919 38.6363 52.2336L40.454 51.8796L41.5576 55.0845L39.9065 55.925Z" fill="#222222"/>
</svg>
