<svg width="160" height="51" viewBox="0 0 160 51" fill="none" xmlns="http://www.w3.org/2000/svg">
<rect width="160" height="50.2326" rx="3" fill="#FBDE4B"/>
<path d="M29.9697 13.9531H13.6854C13.2882 13.9531 13.0234 14.2854 13.0234 14.6176V33.8867C13.0234 34.2189 13.222 34.4182 13.6854 34.4182H17.0614C17.6572 34.4182 17.7234 34.2854 17.7234 33.8867V18.3385H25.9979V33.8867C25.9979 34.2189 26.1965 34.4182 26.6599 34.4182H30.0359C30.6317 34.4182 30.6979 34.2854 30.6979 33.8867V14.6176C30.5655 14.2854 30.3669 13.9531 29.9697 13.9531Z" fill="black"/>
<path d="M42.1801 30.7472C41.3405 31.0936 40.1779 31.0936 39.6612 31.0936C38.0465 31.0936 37.0777 30.6087 37.0777 29.2926C37.0777 27.4916 38.6924 27.2838 39.7904 27.2838L42.1801 27.5609V30.7472ZM43.0843 19.0408C43.2135 19.0408 39.7258 17.9325 34.4297 19.2486C34.1067 19.3179 33.9776 19.4564 34.1067 19.872L34.5588 22.1579C34.6234 22.5043 34.8172 22.6428 35.3339 22.5043C36.4319 22.1579 38.3049 21.9501 39.5966 21.9501C41.8572 21.9501 42.1801 22.9199 42.1801 23.9589V24.5823C42.1801 24.5823 41.0821 24.513 38.8862 24.4438C34.688 24.3745 32.5566 26.5911 32.5566 29.5696C32.5566 32.2019 34.1713 34.3492 39.532 34.3492C40.8238 34.3492 42.6322 34.0721 43.6656 33.7258C43.924 33.8643 43.8594 34.2106 44.2469 34.2106L45.9262 34.4184C46.4429 34.4184 46.5074 34.3492 46.5074 34.0029V32.4789C46.5074 32.4097 46.5074 32.3404 46.5074 32.2711V24.7901C46.572 22.2272 45.4741 19.7335 43.0843 19.0408Z" fill="black"/>
<path d="M122.741 30.1509C122.057 30.1509 121.235 30.0853 120.071 29.823V22.4126C120.824 22.2159 121.92 22.0847 122.467 22.0847C124.863 22.0847 126.301 23.0028 126.301 26.0195C126.301 29.0361 124.863 30.1509 122.741 30.1509ZM124.521 18.8058C123.152 18.6747 121.92 18.8058 121.372 18.937C120.961 19.0026 120.482 19.1337 120.071 19.2649L119.866 19.3304C119.661 19.1993 119.661 18.5435 119.25 18.6091L116.032 19.0025C115.827 19.0681 115.622 19.1337 115.553 19.1993C115.416 19.2649 115.348 19.396 115.348 19.5928V38.4138C115.348 38.8073 115.553 38.8729 116.032 38.8729L119.387 39.0696C120.003 39.0696 120.071 39.004 120.071 38.6106V33.1019C121.44 33.3643 122.399 33.4298 123.7 33.4298C128.834 33.4298 131.162 30.0853 131.162 26.085C131.162 22.4126 129.45 19.3304 124.521 18.8058Z" fill="black"/>
<path d="M56.6278 30.1509C55.9432 30.1509 55.1217 30.0853 53.9579 29.823V22.4126C54.711 22.2159 55.7378 22.0847 56.354 22.0847C58.75 22.0847 60.1877 23.0028 60.1877 26.0195C60.2561 29.0361 58.75 30.1509 56.6278 30.1509ZM58.4762 18.8058C57.107 18.6747 55.8748 18.8058 55.3271 18.937C54.9163 19.0026 54.4371 19.1337 54.0264 19.2649L53.821 19.3304C53.6156 19.1993 53.6156 18.5435 53.2049 18.6091L49.9873 19.0025C49.7135 19.0681 49.5766 19.1337 49.5081 19.1993C49.3712 19.2649 49.3027 19.396 49.3027 19.5928V38.4138C49.3027 38.8073 49.5081 38.8729 49.9873 38.8729L53.3418 39.0696C53.9579 39.0696 54.0264 39.004 54.0264 38.6106V33.1019C55.3955 33.3643 56.354 33.4298 57.6547 33.4298C62.7891 33.4298 65.1167 30.0853 65.1167 26.085C65.0482 22.4126 63.3368 19.3304 58.4762 18.8058Z" fill="black"/>
<path d="M142.704 30.7472C141.865 31.0936 140.703 31.0936 140.187 31.0936C138.573 31.0936 137.605 30.6087 137.605 29.2926C137.605 27.4916 139.219 27.2838 140.316 27.2838L142.704 27.5609V30.7472V30.7472ZM143.608 19.0408C143.737 19.0408 140.251 17.9325 134.958 19.2486C134.635 19.3179 134.506 19.4564 134.635 19.872L135.087 22.1579C135.152 22.5043 135.345 22.6428 135.862 22.5043C136.959 22.1579 138.831 21.9501 140.058 21.9501C142.317 21.9501 142.64 22.9199 142.64 23.9589V24.5823C142.64 24.5823 141.542 24.513 139.348 24.4438C135.152 24.3745 133.021 26.5911 133.021 29.5696C133.021 32.2019 134.635 34.3492 139.993 34.3492C141.284 34.3492 143.092 34.0721 144.124 33.7258C144.383 33.8643 144.318 34.2106 144.705 34.2106L146.384 34.4184C146.9 34.4184 146.965 34.3492 146.965 34.0029V32.4789C146.965 32.4097 146.965 32.3404 146.965 32.2711V24.7901C147.094 22.2272 145.996 19.7335 143.608 19.0408Z" fill="black"/>
<path d="M105.5 30.1509C104.855 30.1509 104.082 30.0853 102.987 29.823V22.4126C103.696 22.2159 104.662 22.0847 105.242 22.0847C107.497 22.0847 108.85 23.0028 108.85 26.0195C108.915 29.0361 107.561 30.1509 105.5 30.1509ZM107.239 18.8058C105.951 18.6747 104.791 18.8058 104.275 18.937C103.889 19.0026 103.438 19.1337 103.051 19.2649L102.858 19.3304C102.665 19.1993 102.665 18.5435 102.278 18.6091L99.2498 19.0025C98.9921 19.0681 98.8632 19.1337 98.7988 19.1993C98.6699 19.2649 98.6055 19.396 98.6055 19.5928V38.4138C98.6055 38.8073 98.7988 38.8729 99.2498 38.8729L102.407 39.0696C102.987 39.0696 103.051 39.004 103.051 38.6106V33.1019C104.34 33.3643 105.242 33.4298 106.466 33.4298C111.298 33.4298 113.489 30.0853 113.489 26.085C113.489 22.4126 111.878 19.3304 107.239 18.8058Z" fill="black"/>
<path d="M80.3209 19.5347H66.6605C66.1168 19.5347 66.0488 19.6731 66.0488 20.1577V22.6499C66.0488 23.0652 66.2527 23.2729 66.6605 23.2729H71.146V33.8646C71.146 34.2107 71.4178 34.4184 71.8936 34.4184H75.0198C75.6315 34.4184 75.7674 34.3492 75.7674 33.8646V23.2729H80.3209C80.7286 23.2729 80.9325 23.0652 80.9325 22.6499V20.1577C80.9325 19.6731 80.7966 19.5347 80.3209 19.5347Z" fill="black"/>
<path d="M86.5601 25.0137C86.6923 23.2721 87.4858 22.0181 89.4693 22.0181C91.6512 22.0181 92.4447 23.3417 92.4447 25.0137H86.5601ZM89.2709 18.6045C84.6426 18.6045 81.7334 21.5304 81.8657 26.616C81.9979 32.0498 84.5765 34.4184 89.9983 34.4184C91.7174 34.4184 94.296 34.0701 95.7506 33.0948C96.0812 32.8858 96.1473 32.7465 96.0151 32.3982L95.5522 30.3082C95.42 29.9599 95.2878 29.9599 94.7588 30.0992C93.7009 30.5172 91.519 30.7959 90.3289 30.7959C88.2792 30.7959 86.6923 30.0992 86.5601 27.6609H96.0151C97.0068 27.6609 96.6763 27.1036 96.7424 25.0833C96.7424 20.9034 93.6348 18.6045 89.2709 18.6045Z" fill="black"/>
</svg>
