<svg width="71" height="70" viewBox="0 0 71 70" fill="none" xmlns="http://www.w3.org/2000/svg">
<g clip-path="url(#clip0_4249_18040)">
<path fill-rule="evenodd" clip-rule="evenodd" d="M17.9797 0.621565C22.9575 -0.439556 28.1025 -0.43961 33.0803 0.621403C36.7682 1.40175 40.0766 3.42613 42.4527 6.35582C44.8289 9.28568 46.1288 12.9434 46.1354 16.7176L46.1354 16.7194V34.987C46.1354 35.5393 45.6877 35.987 45.1354 35.987C44.5831 35.987 44.1354 35.5393 44.1354 34.987V16.7211C44.1296 13.4042 42.9872 10.1899 40.8993 7.61564C38.8115 5.0414 35.9049 3.26321 32.6656 2.57794L32.8726 1.59958L32.6641 2.57762C27.961 1.57505 23.0999 1.57504 18.3968 2.57758M17.9797 0.621565L18.1876 1.59664L17.9797 0.621565ZM18.1876 1.59664L17.9797 0.621565C14.2966 1.40729 10.9941 3.43414 8.62324 6.36351C6.25241 9.29285 4.95641 12.9476 4.95117 16.718L4.95117 69.1742C4.95117 69.7265 5.39889 70.1742 5.95117 70.1742C6.50346 70.1742 6.95117 69.7265 6.95117 69.1742V16.7201C6.95593 13.4067 8.09493 10.1954 10.1779 7.62173C12.2609 5.04799 15.162 3.26771 18.3968 2.57758" fill="#222222"/>
<path fill-rule="evenodd" clip-rule="evenodd" d="M14.654 2.38874C15.187 2.24395 15.7364 2.55864 15.8812 3.09161C16.0304 3.64069 16.1028 4.20779 16.0965 4.77674C16.0994 5.65298 15.93 6.52127 15.5979 7.33207C15.2647 8.14548 14.7744 8.88506 14.1549 9.50831C13.5354 10.1316 12.799 10.6262 11.988 10.9637C11.1772 11.3012 10.3078 11.4749 9.42974 11.475C8.87966 11.4759 8.33118 11.416 7.79427 11.2962C7.25522 11.176 6.9157 10.6416 7.03591 10.1026C7.15612 9.56352 7.69056 9.22399 8.2296 9.3442C8.62273 9.43188 9.02433 9.47575 9.42707 9.47504L9.42886 9.47503C10.0434 9.47504 10.6519 9.35347 11.2195 9.11725C11.7871 8.88104 12.3026 8.53482 12.7364 8.09839C13.1702 7.66197 13.5137 7.14393 13.7471 6.574C13.9806 6.00407 14.0993 5.39351 14.0965 4.7774L14.0966 4.76041C14.1014 4.37399 14.0525 3.98879 13.9512 3.61593C13.8064 3.08296 14.1211 2.53353 14.654 2.38874ZM9.42974 11.475C9.42944 11.475 9.42914 11.475 9.42884 11.475L9.42885 10.475L9.43063 11.475C9.43033 11.475 9.43003 11.475 9.42974 11.475Z" fill="#222222"/>
<path fill-rule="evenodd" clip-rule="evenodd" d="M36.5011 2.27291C37.0269 2.44202 37.316 3.00531 37.1469 3.53107C37.0215 3.92101 36.9594 4.32861 36.963 4.7383L36.9631 4.74719H36.9631C36.9631 5.32941 37.0779 5.90585 37.301 6.4434C37.524 6.98094 37.8509 7.46896 38.2627 7.87944C38.6745 8.28993 39.1632 8.6148 39.7005 8.83548C40.2379 9.05616 40.8134 9.16832 41.3941 9.16555L41.4003 9.16554C41.8438 9.16615 42.285 9.102 42.7101 8.97511C43.2393 8.81712 43.7964 9.11805 43.9544 9.64726C44.1123 10.1765 43.8114 10.7335 43.2822 10.8915C42.6716 11.0738 42.0378 11.1661 41.4007 11.1655C40.5571 11.1692 39.7212 11.006 38.9408 10.6855C38.1594 10.3647 37.4492 9.8924 36.8508 9.29593C36.2524 8.69946 35.7776 7.99054 35.4537 7.20994C35.1304 6.43071 34.9637 5.59532 34.9631 4.75159C34.958 4.1296 35.0525 3.51079 35.243 2.91869C35.4121 2.39293 35.9754 2.1038 36.5011 2.27291Z" fill="#222222"/>
<path fill-rule="evenodd" clip-rule="evenodd" d="M20.6094 0.135254C21.1617 0.135254 21.6094 0.582969 21.6094 1.13525V1.8061C21.6094 2.64824 21.8322 3.36177 22.1398 3.83426C22.4527 4.31485 22.7704 4.44414 22.9795 4.44414H28.1319C28.3017 4.44414 28.6085 4.33027 28.9228 3.84006C29.2277 3.3645 29.4505 2.648 29.4505 1.8061V1.18686C29.4505 0.634573 29.8982 0.186857 30.4505 0.186857C31.0028 0.186857 31.4505 0.634573 31.4505 1.18686V1.8061C31.4505 2.97673 31.1452 4.07925 30.6064 4.91957C30.077 5.74525 29.2245 6.44414 28.1319 6.44414H22.9795C21.8747 6.44414 21.0074 5.76067 20.4637 4.92537C19.9146 4.08197 19.6094 2.97649 19.6094 1.8061V1.13525C19.6094 0.582969 20.0571 0.135254 20.6094 0.135254Z" fill="#222222"/>
<path fill-rule="evenodd" clip-rule="evenodd" d="M44.2826 23.1922C44.5698 22.7204 45.185 22.5707 45.6568 22.8578L49.0042 24.8952C49.0045 24.8954 49.004 24.895 49.0042 24.8952C49.6828 25.3066 50.2451 25.8861 50.636 26.5769C51.027 27.268 51.2342 28.048 51.2378 28.8421L51.2378 28.8466L51.2378 33.0265C51.2378 33.5788 50.7901 34.0265 50.2378 34.0265C49.6855 34.0265 49.2378 33.5788 49.2378 33.0265V28.849C49.2354 28.3976 49.1175 27.9544 48.8953 27.5618C48.6728 27.1686 48.3534 26.8394 47.9676 26.6056L44.617 24.5663C44.1452 24.2791 43.9955 23.6639 44.2826 23.1922Z" fill="#222222"/>
<path fill-rule="evenodd" clip-rule="evenodd" d="M6.80107 23.1856C7.09184 23.6551 6.94692 24.2715 6.47738 24.5622L3.09437 26.6572C2.70865 26.891 2.38914 27.2202 2.16667 27.6134C1.94453 28.006 1.82659 28.4492 1.82422 28.9006V33.0265C1.82422 33.5788 1.3765 34.0265 0.824219 34.0265C0.271934 34.0265 -0.175781 33.5788 -0.175781 33.0265V28.8937C-0.172224 28.0996 0.0349527 27.3196 0.425976 26.6285C0.816167 25.9388 1.37643 25.3607 2.05339 24.9494L5.42439 22.8619C5.89394 22.5711 6.51029 22.716 6.80107 23.1856Z" fill="#222222"/>
<rect x="12" y="25" width="28" height="18" rx="7" fill="#D8D8D8"/>
<path d="M33.7203 13.1844C28.6565 10.2719 23.4174 10.2719 18.3536 13.1844C16.5582 14.2346 14.9506 16.8815 13.7958 20.689C12.6409 24.4965 12.0075 29.2376 12 34.1315V36C21.0502 27.3442 30.9498 27.3442 40 36V34.1315C40.0029 29.26 39.3826 24.531 38.2412 20.7235C37.0997 16.916 35.5052 14.257 33.7203 13.1844Z" fill="#D8D8D8"/>
<path fill-rule="evenodd" clip-rule="evenodd" d="M12.4688 45.8184C13.021 45.8184 13.4688 46.2661 13.4688 46.8184V63.0218C13.4688 64.0573 13.8795 65.05 14.6101 65.7817C15.3406 66.5134 16.3311 66.9241 17.3636 66.9241H35.0622C35.6144 66.9241 36.0622 67.3719 36.0622 67.9241C36.0622 68.4764 35.6144 68.9241 35.0622 68.9241H17.3636C15.7997 68.9241 14.3001 68.3019 13.1948 67.1949C12.0894 66.0878 11.4688 64.5867 11.4688 63.0218V46.8184C11.4688 46.2661 11.9165 45.8184 12.4688 45.8184Z" fill="#222222"/>
<circle cx="54" cy="53" r="17" fill="#D8D8D8"/>
<path d="M56.6844 49.9442C56.1859 49.5154 55.5898 49.2124 54.9472 49.0612C54.3046 48.9099 53.6345 48.9149 52.9943 49.0755C52.354 49.2362 51.7626 49.5479 51.2705 49.9839C50.7784 50.4199 50.4003 50.9672 50.1686 51.5792C49.9368 52.1912 49.8582 52.8496 49.9395 53.4982C50.0209 54.1468 50.2597 54.7663 50.6356 55.3037C51.0114 55.8411 51.5132 56.2805 52.0981 56.5843C52.6829 56.8881 53.3334 57.0473 53.9939 57.0483C54.0907 57.0483 54.1879 57.0449 54.2855 57.0382C55.0928 56.9823 55.8652 56.6909 56.5051 56.2006C57.145 55.7104 57.6236 55.0435 57.8803 54.2842C58.1371 53.5248 58.1606 52.7072 57.9477 51.9347C57.7348 51.1622 57.2952 50.4695 56.6844 49.9442ZM55.6447 54.4142C55.4096 54.6818 55.1114 54.8879 54.7765 55.0143C54.4417 55.1406 54.0805 55.1833 53.725 55.1386C53.3694 55.0938 53.0306 54.963 52.7383 54.7577C52.4461 54.5524 52.2096 54.279 52.0497 53.9617C51.8898 53.6443 51.8114 53.2929 51.8216 52.9384C51.8317 52.584 51.9301 52.2375 52.1079 51.9296C52.2858 51.6217 52.5376 51.362 52.8411 51.1735C53.1446 50.9849 53.4904 50.8733 53.8479 50.8486C53.8999 50.845 53.9517 50.8432 54.0032 50.8432C54.5278 50.8426 55.0348 51.0306 55.4298 51.3722C55.8654 51.7478 56.1327 52.2789 56.173 52.8492C56.2133 53.4195 56.0233 53.9824 55.6447 54.4142ZM64.7248 47.4367C64.5953 47.0694 64.3368 46.7604 63.9963 46.566C63.6558 46.3715 63.2561 46.3046 62.8699 46.3775L61.0943 46.7196C60.5628 46.1327 59.9594 45.6137 59.298 45.1747L59.3933 43.3873C59.4125 42.9988 59.29 42.6164 59.048 42.3099C58.806 42.0034 58.4607 41.7931 58.0751 41.7174L54.4932 41.0285C54.107 40.9559 53.7073 41.023 53.3669 41.2175C53.0265 41.412 52.7681 41.721 52.6387 42.0883L52.0503 43.7811C51.2703 43.9419 50.5139 44.1992 49.7987 44.5467L48.2832 43.5722C47.9527 43.3615 47.5567 43.2754 47.1674 43.3294C46.7782 43.3835 46.4215 43.5742 46.1624 43.8667L43.7685 46.5915C43.5117 46.886 43.3704 47.262 43.3705 47.651C43.3705 48.04 43.5119 48.416 43.7688 48.7104L44.9552 50.0598C44.7067 50.8088 44.5545 51.5858 44.5021 52.3724L42.8898 53.1844C42.5402 53.3622 42.2667 53.6584 42.1194 54.019C41.9721 54.3797 41.9607 54.7807 42.0873 55.1489L43.2752 58.5624C43.4047 58.9297 43.6632 59.2387 44.0037 59.4332C44.3442 59.6276 44.7439 59.6945 45.1301 59.6217L46.9057 59.2795C47.4372 59.8665 48.0406 60.3854 48.702 60.8245L48.6067 62.6118C48.5875 63.0003 48.7101 63.3827 48.9521 63.6893C49.194 63.9958 49.5393 64.2061 49.9249 64.2818L53.5067 64.9706C53.6083 64.9902 53.7115 65 53.815 65C54.155 64.9993 54.4864 64.8942 54.7634 64.6991C55.0404 64.504 55.2494 64.2285 55.3613 63.9109L55.9497 62.2181C56.7297 62.0573 57.4861 61.8 58.2013 61.4524L59.7168 62.427C60.0473 62.6377 60.4433 62.724 60.8326 62.6699C61.2219 62.6158 61.5786 62.4251 61.8376 62.1324L64.2315 59.4077C64.4883 59.1132 64.6295 58.7372 64.6295 58.3482C64.6294 57.9592 64.4881 57.5832 64.2312 57.2888L63.0448 55.9395C63.2932 55.1904 63.4454 54.4134 63.4979 53.6268L65.1102 52.8147C65.4598 52.637 65.7332 52.3407 65.8806 51.9801C66.0279 51.6195 66.0393 51.2185 65.9127 50.8503L64.7248 47.4367ZM62.4854 52.0135C62.2297 52.1429 62.013 52.3366 61.8571 52.5751C61.7012 52.8136 61.6115 53.0886 61.5971 53.3724C61.5619 54.0882 61.4234 54.7955 61.1857 55.4725C61.0919 55.7408 61.0712 56.0287 61.1255 56.3075C61.1799 56.5862 61.3075 56.8458 61.4954 57.0603L62.6281 58.3485L60.5544 60.7088L59.1074 59.7784C58.8666 59.6241 58.5889 59.5352 58.3024 59.5207C58.0159 59.5062 57.7305 59.5667 57.4751 59.6959C56.8306 60.023 56.1421 60.2571 55.4306 60.3912C55.1486 60.4447 54.8858 60.5708 54.6686 60.7569C54.4515 60.9429 54.2878 61.1822 54.194 61.4508L53.6322 63.0671L50.5294 62.4704L50.6204 60.7639C50.635 60.4805 50.574 60.1983 50.4435 59.9457C50.313 59.693 50.1175 59.4787 49.8769 59.3244C49.268 58.935 48.7181 58.462 48.2436 57.9197C48.0557 57.7053 47.814 57.5437 47.5429 57.451C47.2718 57.3583 46.9808 57.3378 46.6992 57.3916L45.0041 57.7182L43.975 54.7611L45.5145 53.9857C45.7702 53.8564 45.9869 53.6627 46.1429 53.4241C46.2989 53.1855 46.3885 52.9105 46.4029 52.6267C46.438 51.9108 46.5766 51.2037 46.8143 50.5267C46.9081 50.2584 46.9289 49.9704 46.8745 49.6917C46.8201 49.413 46.6925 49.1533 46.5045 48.9389L45.3719 47.6507L47.4456 45.2903L48.8926 46.2208C49.1334 46.3752 49.411 46.4641 49.6976 46.4785C49.9841 46.493 50.2695 46.4326 50.5249 46.3033C51.1695 45.9762 51.858 45.742 52.5696 45.6079C52.8516 45.5543 53.1144 45.4282 53.3314 45.2422C53.5485 45.0562 53.7121 44.8169 53.806 44.5483L54.3678 42.9321L57.4706 43.5288L57.3796 45.2353C57.365 45.5186 57.426 45.8008 57.5565 46.0535C57.687 46.3062 57.8824 46.5204 58.1231 46.6747C58.4271 46.8693 58.7168 47.0848 58.9901 47.3198C59.2633 47.5548 59.5194 47.8087 59.7564 48.0795C59.9444 48.2938 60.186 48.4554 60.4571 48.5481C60.7282 48.6408 61.0191 48.6613 61.3008 48.6076L62.9959 48.281L64.025 51.238L62.4854 52.0135Z" fill="#222222"/>
</g>
<defs>
<clipPath id="clip0_4249_18040">
<rect width="70.8974" height="70" fill="white"/>
</clipPath>
</defs>
</svg>
