<svg width="70" height="70" viewBox="0 0 70 70" fill="none" xmlns="http://www.w3.org/2000/svg">
<g clip-path="url(#clip0_4249_17941)">
<circle cx="28" cy="28" r="28" fill="#D8D8D8"/>
<path d="M14.9883 32.7602H19.9109V31.7018C19.9245 31.1882 19.753 30.6869 19.4276 30.2893C19.1023 29.8916 18.6449 29.6242 18.1388 29.5358L14.9883 28.9697V32.7602Z" fill="white"/>
<path fill-rule="evenodd" clip-rule="evenodd" d="M19.4697 13.9404H36.9324C37.6895 13.9495 38.4306 14.1596 39.0799 14.5492C39.7292 14.9388 40.2633 15.4938 40.6276 16.1576L40.6353 16.172L43.4344 21.4755C43.5472 21.6727 43.7093 21.8373 43.9049 21.9532C44.1024 22.0702 44.327 22.1335 44.5564 22.1366L46.5434 22.1366C46.5437 22.1366 46.5431 22.1366 46.5434 22.1366C46.9606 22.1365 47.3624 22.2978 47.6634 22.5867C47.9645 22.8758 48.142 23.2702 48.1587 23.6873C48.1593 23.7007 48.1595 23.714 48.1595 23.7273V25.7949C48.1595 25.8129 48.159 25.8309 48.1581 25.849C48.1407 26.1691 48.0299 26.4772 47.8393 26.735C47.6701 26.964 47.4445 27.1445 47.1853 27.2594L46.4802 27.6688L46.4638 27.6781C46.3514 27.7406 46.2577 27.8319 46.1923 27.9426C46.1272 28.053 46.0926 28.1788 46.092 28.307C46.092 28.3074 46.092 28.3077 46.092 28.3081L46.092 38.9137C46.092 39.8317 45.7273 40.7121 45.0782 41.3612C44.4291 42.0104 43.5487 42.375 42.6307 42.375H41.2277C40.7732 42.375 40.3231 42.2855 39.9032 42.1115C39.4832 41.9376 39.1016 41.6826 38.7802 41.3612C38.4588 41.0398 38.2038 40.6582 38.0299 40.2383C37.8559 39.8183 37.7664 39.3682 37.7664 38.9137V38.5108H18.599V38.9137C18.599 39.8317 18.2344 40.7121 17.5852 41.3612C16.9361 42.0104 16.0557 42.375 15.1377 42.375H13.7348C12.8168 42.375 11.9364 42.0104 11.2872 41.3612C10.6381 40.7121 10.2735 39.8317 10.2735 38.9137V28.3054L10.2736 28.2908C10.2754 28.167 10.243 28.0451 10.1801 27.9385C10.1172 27.8319 10.0261 27.7447 9.91689 27.6864C9.90624 27.6807 9.89568 27.6749 9.88524 27.6688L9.17439 27.256C8.9117 27.136 8.68542 26.9474 8.5198 26.7093C8.33554 26.4445 8.23483 26.1305 8.23064 25.8078L8.23047 25.7949L8.23055 23.7273C8.23055 23.714 8.23082 23.7007 8.23135 23.6873C8.24805 23.2702 8.42558 22.8758 8.72672 22.5867C9.02767 22.2978 9.42872 22.1365 9.84588 22.1366C9.84615 22.1366 9.84562 22.1366 9.84588 22.1366H11.7387C11.9675 22.1354 12.1918 22.0732 12.3887 21.9566C12.5854 21.84 12.7476 21.6732 12.8586 21.4732L15.7604 16.1615C15.7606 16.1611 15.7608 16.1607 15.761 16.1603C16.1233 15.4937 16.6575 14.9362 17.3081 14.5458C17.9592 14.1552 18.7029 13.9462 19.4621 13.9405L19.4697 13.9404ZM19.4738 15.9404C19.0731 15.9441 18.6807 16.0547 18.3371 16.2608C17.9926 16.4676 17.7097 16.7629 17.5179 17.116L17.5167 17.1182L14.6099 22.4391C14.3267 22.9513 13.9119 23.3787 13.4083 23.6771C12.9047 23.9756 12.3306 24.1342 11.7453 24.1366L11.7411 24.1366H10.2306V25.5566L10.8757 25.9312C11.3013 26.1623 11.6563 26.5047 11.9025 26.922C12.1509 27.3427 12.2791 27.8234 12.2735 28.3119V38.9137C12.2735 39.3013 12.4274 39.673 12.7015 39.947C12.9755 40.2211 13.3472 40.375 13.7348 40.375H15.1377C15.5253 40.375 15.897 40.2211 16.171 39.947C16.4451 39.673 16.599 39.3013 16.599 38.9137V37.5108C16.599 36.9585 17.0468 36.5108 17.599 36.5108H38.7664C39.3187 36.5108 39.7664 36.9585 39.7664 37.5108V38.9137C39.7664 39.1056 39.8042 39.2956 39.8777 39.4729C39.9511 39.6502 40.0587 39.8113 40.1944 39.947C40.3301 40.0827 40.4912 40.1903 40.6685 40.2638C40.8458 40.3372 41.0358 40.375 41.2277 40.375H42.6307C43.0183 40.375 43.39 40.2211 43.664 39.947C43.9381 39.673 44.092 39.3013 44.092 38.9137V28.3054L44.092 28.3027C44.0933 27.8184 44.2238 27.3432 44.4699 26.9261C44.7143 26.512 45.0639 26.1701 45.4832 25.935L46.1595 25.5423V24.1366H44.5401C43.9574 24.1306 43.3866 23.9709 42.8853 23.6738C42.384 23.3767 41.9699 22.9527 41.6847 22.4445C41.6806 22.437 41.6765 22.4295 41.6725 22.422L38.8707 17.1134C38.677 16.7631 38.3942 16.4702 38.0509 16.2642C37.7071 16.0579 37.3148 15.9462 36.9139 15.9404H19.4738Z" fill="#222222"/>
<path d="M41.3739 32.7603H36.4513V31.7019C36.4463 31.1881 36.6283 30.69 36.9634 30.3006C37.2985 29.9111 37.7639 29.6568 38.2727 29.5851L41.3985 29.019L41.3739 32.7603Z" fill="white"/>
<path fill-rule="evenodd" clip-rule="evenodd" d="M13.9883 37.5107C13.9883 36.9585 14.436 36.5107 14.9883 36.5107H17.6219C18.1742 36.5107 18.6219 36.9585 18.6219 37.5107C18.6219 38.063 18.1742 38.5107 17.6219 38.5107H14.9883C14.436 38.5107 13.9883 38.063 13.9883 37.5107Z" fill="#222222"/>
<path fill-rule="evenodd" clip-rule="evenodd" d="M37.7656 37.5107C37.7656 36.9585 38.2133 36.5107 38.7656 36.5107H41.3746C41.9269 36.5107 42.3746 36.9585 42.3746 37.5107C42.3746 38.063 41.9269 38.5107 41.3746 38.5107H38.7656C38.2133 38.5107 37.7656 38.063 37.7656 37.5107Z" fill="#222222"/>
<path fill-rule="evenodd" clip-rule="evenodd" d="M22.457 32.7603C22.457 32.208 22.9047 31.7603 23.457 31.7603H32.9085C33.4608 31.7603 33.9085 32.208 33.9085 32.7603C33.9085 33.3125 33.4608 33.7603 32.9085 33.7603H23.457C22.9047 33.7603 22.457 33.3125 22.457 32.7603Z" fill="#222222"/>
<path fill-rule="evenodd" clip-rule="evenodd" d="M60.2791 27.9204C60.8314 27.9204 61.2791 28.3681 61.2791 28.9204C61.2791 37.5021 57.8701 45.7323 51.8019 51.8004C45.7337 57.8686 37.5036 61.2777 28.9219 61.2777C28.3696 61.2777 27.9219 60.8299 27.9219 60.2777C27.9219 59.7254 28.3696 59.2777 28.9219 59.2777C36.9731 59.2777 44.6946 56.0793 50.3877 50.3862C56.0808 44.6931 59.2791 36.9717 59.2791 28.9204C59.2791 28.3681 59.7268 27.9204 60.2791 27.9204Z" fill="#222222"/>
<path fill-rule="evenodd" clip-rule="evenodd" d="M52.7981 47.6855C53.187 47.2934 53.8202 47.2907 54.2123 47.6796L68.9877 62.3318C69.8459 63.2007 70.3271 64.3729 70.3271 65.5943C70.3271 66.8156 69.8459 67.9878 68.9876 68.8568L68.2761 68.1541L68.9788 68.8655C68.1099 69.7238 66.9377 70.2051 65.7164 70.2051C64.495 70.2051 63.3229 69.7238 62.4539 68.8655L62.4465 68.8582L47.8017 54.0903C47.4128 53.6981 47.4154 53.065 47.8076 52.6761C48.1997 52.2872 48.8329 52.2898 49.2218 52.682L63.8627 67.446C64.357 67.9324 65.0227 68.2051 65.7164 68.2051C66.4095 68.2051 67.0748 67.9328 67.569 67.447C68.0548 66.9528 68.3271 66.2875 68.3271 65.5943C68.3271 64.9007 68.0545 64.2349 67.568 63.7406L52.8041 49.0997C52.4119 48.7108 52.4093 48.0777 52.7981 47.6855Z" fill="#222222"/>
<path d="M39.8736 23.4566L36.92 18.1401H19.3954L16.5156 23.4566H39.9228H39.8736Z" fill="white"/>
</g>
<defs>
<clipPath id="clip0_4249_17941">
<rect width="70" height="70" fill="white"/>
</clipPath>
</defs>
</svg>
