<svg width="70" height="70" viewBox="0 0 70 70" fill="none" xmlns="http://www.w3.org/2000/svg">
<path d="M61.4307 33.8333H56.834C56.0188 33.8322 55.2184 33.6159 54.5137 33.2062C53.8089 32.7965 53.2249 32.2079 52.8207 31.5H51.5257C51.1175 32.207 50.5309 32.7946 49.8247 33.204C49.1184 33.6135 48.317 33.8305 47.5007 33.8333H45.1673C44.3521 33.8322 43.5517 33.6159 42.847 33.2062C42.1423 32.7965 41.5582 32.2079 41.154 31.5H39.859C39.4508 32.207 38.8643 32.7946 38.158 33.204C37.4517 33.6135 36.6504 33.8305 35.834 33.8333H33.5007C32.6843 33.8305 31.8829 33.6135 31.1766 33.204C30.4704 32.7946 29.8838 32.207 29.4757 31.5H28.1807C27.7764 32.2079 27.1924 32.7965 26.4877 33.2062C25.7829 33.6159 24.9825 33.8322 24.1673 33.8333H21.834C21.0176 33.8305 20.2163 33.6135 19.51 33.204C18.8037 32.7946 18.2172 32.207 17.809 31.5H16.514C16.1097 32.2079 15.5257 32.7965 14.821 33.2062C14.1163 33.6159 13.3158 33.8322 12.5007 33.8333H7.90398C7.88065 33.8333 7.85732 33.8333 7.83398 33.8333V64.1667C7.83398 65.4043 8.32565 66.5913 9.20082 67.4665C10.076 68.3417 11.263 68.8333 12.5007 68.8333H14.834V49C14.834 47.9275 15.0452 46.8656 15.4556 45.8748C15.866 44.8839 16.4676 43.9836 17.2259 43.2253C17.9843 42.4669 18.8846 41.8654 19.8754 41.455C20.8662 41.0446 21.9282 40.8333 23.0007 40.8333C24.0731 40.8333 25.1351 41.0446 26.1259 41.455C27.1167 41.8654 28.017 42.4669 28.7754 43.2253C29.5337 43.9836 30.1353 44.8839 30.5457 45.8748C30.9561 46.8656 31.1673 47.9275 31.1673 49V68.8333H56.834C58.0717 68.8333 59.2586 68.3417 60.1338 67.4665C61.009 66.5913 61.5007 65.4043 61.5007 64.1667V33.8333C61.4773 33.8333 61.454 33.8333 61.4307 33.8333ZM54.5007 52.5C54.5007 53.1188 54.2548 53.7123 53.8172 54.1499C53.3797 54.5875 52.7862 54.8333 52.1673 54.8333H40.5007C39.8818 54.8333 39.2883 54.5875 38.8507 54.1499C38.4132 53.7123 38.1673 53.1188 38.1673 52.5V43.1667C38.1673 42.5478 38.4132 41.9543 38.8507 41.5167C39.2883 41.0792 39.8818 40.8333 40.5007 40.8333H52.1673C52.7862 40.8333 53.3797 41.0792 53.8172 41.5167C54.2548 41.9543 54.5007 42.5478 54.5007 43.1667V52.5Z" fill="#D8D8D8"/>
<path fill-rule="evenodd" clip-rule="evenodd" d="M23.0007 41.833C21.0999 41.833 19.2771 42.5881 17.9331 43.9321C16.589 45.2761 15.834 47.099 15.834 48.9997V68.833C15.834 69.3853 15.3863 69.833 14.834 69.833C14.2817 69.833 13.834 69.3853 13.834 68.833V48.9997C13.834 46.5685 14.7998 44.2369 16.5188 42.5179C18.2379 40.7988 20.5695 39.833 23.0007 39.833C25.4318 39.833 27.7634 40.7988 29.4825 42.5179C31.2015 44.2369 32.1673 46.5685 32.1673 48.9997V68.833C32.1673 69.3853 31.7196 69.833 31.1673 69.833C30.615 69.833 30.1673 69.3853 30.1673 68.833V48.9997C30.1673 47.099 29.4123 45.2761 28.0682 43.9321C26.7242 42.5881 24.9014 41.833 23.0007 41.833Z" fill="#222222"/>
<path fill-rule="evenodd" clip-rule="evenodd" d="M40.4993 41.833C39.763 41.833 39.166 42.43 39.166 43.1663V52.4997C39.166 53.2361 39.763 53.833 40.4993 53.833H52.166C52.9024 53.833 53.4993 53.2361 53.4993 52.4997V43.1663C53.4993 42.43 52.9024 41.833 52.166 41.833H40.4993ZM37.166 43.1663C37.166 41.3254 38.6584 39.833 40.4993 39.833H52.166C54.007 39.833 55.4993 41.3254 55.4993 43.1663V52.4997C55.4993 54.3406 54.007 55.833 52.166 55.833H40.4993C38.6584 55.833 37.166 54.3406 37.166 52.4997V43.1663Z" fill="#222222"/>
<path fill-rule="evenodd" clip-rule="evenodd" d="M62.4345 10.1196C61.7478 9.50088 60.8547 9.16099 59.9304 9.16657L59.9244 9.16661L56.8327 9.16659C56.2804 9.16659 55.8327 8.71887 55.8327 8.16659C55.8327 7.61431 56.2804 7.16659 56.8327 7.16659H59.9215C61.3433 7.15879 62.7169 7.68196 63.7732 8.63374C64.8304 9.58623 65.4936 10.8993 65.6329 12.3154L65.6335 12.3215L67.1391 28.6613C67.2066 29.4503 67.1086 30.2446 66.8514 30.9936C66.5942 31.7425 66.1834 32.4294 65.6454 33.0104C65.1074 33.5914 64.454 34.0537 63.727 34.3676C63.0013 34.6809 62.2184 34.8395 61.428 34.8333H56.8327C55.3298 34.8333 53.8885 34.2362 52.8257 33.1735C51.763 32.1108 51.166 30.6695 51.166 29.1666V24.4999C51.166 23.9476 51.6137 23.4999 52.166 23.4999C52.7183 23.4999 53.166 23.9476 53.166 24.4999V29.1666C53.166 30.1391 53.5523 31.0717 54.24 31.7593C54.9276 32.447 55.8602 32.8333 56.8327 32.8333H61.4409C61.9542 32.8377 62.4629 32.7349 62.9342 32.5314C63.4055 32.3279 63.8292 32.0282 64.178 31.6515C64.5268 31.2749 64.7931 30.8295 64.9598 30.3439C65.1263 29.8594 65.1899 29.3455 65.1466 28.835C65.1465 28.834 65.1464 28.8329 65.1463 28.8319L63.6425 12.5111C63.6424 12.5102 63.6423 12.5092 63.6422 12.5083C63.5511 11.5895 63.1205 10.7377 62.4345 10.1196Z" fill="#222222"/>
<path fill-rule="evenodd" clip-rule="evenodd" d="M9.3993 9.16657C8.47498 9.16099 7.58192 9.50088 6.89521 10.1196C6.20921 10.7377 5.77857 11.5895 5.68749 12.5083C5.68739 12.5092 5.6873 12.5102 5.6872 12.5111L4.18336 28.8319C4.18327 28.8329 4.18319 28.8339 4.1831 28.8349C4.1398 29.3456 4.20346 29.8598 4.37002 30.3445C4.53691 30.8302 4.80342 31.2757 5.15249 31.6524C5.50155 32.0291 5.92546 32.3287 6.39706 32.5321C6.86866 32.7355 7.37754 32.838 7.89109 32.8333L7.90034 32.8332L12.4999 32.8333C13.4724 32.8333 14.405 32.4469 15.0926 31.7593C15.7803 31.0717 16.1666 30.139 16.1666 29.1666V24.4999C16.1666 23.9476 16.6143 23.4999 17.1666 23.4999C17.7189 23.4999 18.1666 23.9476 18.1666 24.4999V29.1666C18.1666 30.6695 17.5696 32.1108 16.5069 33.1735C15.4442 34.2362 14.0028 34.8333 12.4999 34.8333H7.90483C7.11432 34.8399 6.33109 34.6817 5.60514 34.3686C4.87773 34.055 4.22387 33.5928 3.68546 33.0118C3.14705 32.4307 2.73597 31.7436 2.47856 30.9944C2.22115 30.2452 2.12308 29.4506 2.19065 28.6613L2.1912 28.6548L3.69679 12.3154C3.83606 10.8993 4.49931 9.58623 5.55647 8.63374C6.61283 7.68196 7.9864 7.15879 9.4082 7.16659H12.4999C13.0522 7.16659 13.4999 7.61431 13.4999 8.16659C13.4999 8.71887 13.0522 9.16659 12.4999 9.16659L9.3993 9.16657Z" fill="#222222"/>
<path fill-rule="evenodd" clip-rule="evenodd" d="M17.166 23.5C17.7183 23.5 18.166 23.9477 18.166 24.5V29.1667C18.166 30.1391 18.5523 31.0718 19.24 31.7594C19.9276 32.447 20.8602 32.8333 21.8327 32.8333H24.166C25.1385 32.8333 26.0711 32.447 26.7587 31.7594C27.4464 31.0718 27.8327 30.1391 27.8327 29.1667V24.5C27.8327 23.9477 28.2804 23.5 28.8327 23.5C29.385 23.5 29.8327 23.9477 29.8327 24.5V29.1667C29.8327 30.6696 29.2357 32.1109 28.173 33.1736C27.1102 34.2363 25.6689 34.8333 24.166 34.8333H21.8327C20.3298 34.8333 18.8884 34.2363 17.8257 33.1736C16.763 32.1109 16.166 30.6696 16.166 29.1667V24.5C16.166 23.9477 16.6137 23.5 17.166 23.5Z" fill="#222222"/>
<path fill-rule="evenodd" clip-rule="evenodd" d="M28.834 23.5C29.3863 23.5 29.834 23.9477 29.834 24.5V29.1667C29.834 30.1391 30.2203 31.0718 30.9079 31.7594C31.5956 32.447 32.5282 32.8333 33.5007 32.8333H35.834C36.8064 32.8333 37.7391 32.447 38.4267 31.7594C39.1143 31.0718 39.5007 30.1391 39.5007 29.1667V24.5C39.5007 23.9477 39.9484 23.5 40.5007 23.5C41.0529 23.5 41.5007 23.9477 41.5007 24.5V29.1667C41.5007 30.6696 40.9036 32.1109 39.8409 33.1736C38.7782 34.2363 37.3369 34.8333 35.834 34.8333H33.5007C31.9978 34.8333 30.5564 34.2363 29.4937 33.1736C28.431 32.1109 27.834 30.6696 27.834 29.1667V24.5C27.834 23.9477 28.2817 23.5 28.834 23.5Z" fill="#222222"/>
<path fill-rule="evenodd" clip-rule="evenodd" d="M40.5 23.5C41.0523 23.5 41.5 23.9477 41.5 24.5V29.1667C41.5 30.1391 41.8863 31.0718 42.5739 31.7594C43.2616 32.447 44.1942 32.8333 45.1667 32.8333H47.5C48.4725 32.8333 49.4051 32.447 50.0927 31.7594C50.7804 31.0718 51.1667 30.1391 51.1667 29.1667V24.5C51.1667 23.9477 51.6144 23.5 52.1667 23.5C52.7189 23.5 53.1667 23.9477 53.1667 24.5V29.1667C53.1667 30.6696 52.5696 32.1109 51.5069 33.1736C50.4442 34.2363 49.0029 34.8333 47.5 34.8333H45.1667C43.6638 34.8333 42.2224 34.2363 41.1597 33.1736C40.097 32.1109 39.5 30.6696 39.5 29.1667V24.5C39.5 23.9477 39.9477 23.5 40.5 23.5Z" fill="#222222"/>
<path fill-rule="evenodd" clip-rule="evenodd" d="M14.8333 2.16699C14.4797 2.16699 14.1406 2.30747 13.8905 2.55752C13.6405 2.80757 13.5 3.1467 13.5 3.50033V15.167C13.5 15.5206 13.6405 15.8598 13.8905 16.1098C14.1406 16.3599 14.4797 16.5003 14.8333 16.5003H54.5C54.8536 16.5003 55.1928 16.3598 55.4428 16.1098C55.6929 15.8598 55.8333 15.5206 55.8333 15.167V3.50033C55.8333 3.1467 55.6929 2.80756 55.4428 2.55752C55.1928 2.30747 54.8536 2.16699 54.5 2.16699H28.8333C28.281 2.16699 27.8333 1.71928 27.8333 1.16699C27.8333 0.614707 28.281 0.166992 28.8333 0.166992H54.5C55.3841 0.166992 56.2319 0.518181 56.857 1.1433C57.4822 1.76843 57.8333 2.61627 57.8333 3.50033V15.167C57.8333 16.051 57.4822 16.8989 56.857 17.524C56.2319 18.1491 55.3841 18.5003 54.5 18.5003H14.8333C13.9493 18.5003 13.1014 18.1491 12.4763 17.524C11.8512 16.8989 11.5 16.051 11.5 15.167V3.50033C11.5 2.61627 11.8512 1.76842 12.4763 1.1433C13.1014 0.518182 13.9493 0.166992 14.8333 0.166992H17.1667C17.719 0.166992 18.1667 0.614707 18.1667 1.16699C18.1667 1.71928 17.719 2.16699 17.1667 2.16699H14.8333Z" fill="#222222"/>
<path fill-rule="evenodd" clip-rule="evenodd" d="M20.834 1.16699C20.834 0.614707 21.2817 0.166992 21.834 0.166992H24.1673C24.7196 0.166992 25.1673 0.614707 25.1673 1.16699C25.1673 1.71928 24.7196 2.16699 24.1673 2.16699H21.834C21.2817 2.16699 20.834 1.71928 20.834 1.16699Z" fill="#222222"/>
</svg>
